<svg xmlns="http://www.w3.org/2000/svg" viewBox="0 0 64 64" fill="none">
  <defs>
    <linearGradient id="bg" x1="0" y1="0" x2="64" y2="64" gradientUnits="userSpaceOnUse">
      <stop stop-color="#1e40af"/>
      <stop offset="1" stop-color="#3b82f6"/>
    </linearGradient>
  </defs>
  <rect width="64" height="64" rx="14" fill="url(#bg)"/>
  <!-- Screen -->
  <rect x="12" y="10" width="40" height="14" rx="3" fill="rgba(255,255,255,0.2)"/>
  <text x="44" y="21" fill="white" font-family="system-ui" font-size="10" text-anchor="end" font-weight="700">123</text>
  <!-- Button grid -->
  <rect x="12" y="28" width="8" height="7" rx="2" fill="rgba(255,255,255,0.25)"/>
  <rect x="23" y="28" width="8" height="7" rx="2" fill="rgba(255,255,255,0.25)"/>
  <rect x="34" y="28" width="8" height="7" rx="2" fill="rgba(255,255,255,0.25)"/>
  <rect x="45" y="28" width="8" height="7" rx="2" fill="#f59e0b"/>
  <rect x="12" y="38" width="8" height="7" rx="2" fill="rgba(255,255,255,0.25)"/>
  <rect x="23" y="38" width="8" height="7" rx="2" fill="rgba(255,255,255,0.25)"/>
  <rect x="34" y="38" width="8" height="7" rx="2" fill="rgba(255,255,255,0.25)"/>
  <rect x="45" y="38" width="8" height="7" rx="2" fill="#f59e0b"/>
  <rect x="12" y="48" width="8" height="7" rx="2" fill="rgba(255,255,255,0.25)"/>
  <rect x="23" y="48" width="8" height="7" rx="2" fill="rgba(255,255,255,0.25)"/>
  <rect x="34" y="48" width="8" height="7" rx="2" fill="rgba(255,255,255,0.25)"/>
  <rect x="45" y="48" width="8" height="7" rx="2" fill="#22c55e"/>
</svg>
